<svg width="158" height="36" viewBox="0 0 158 36" fill="none" xmlns="http://www.w3.org/2000/svg">
<path fill-rule="evenodd" clip-rule="evenodd" d="M27.8333 18C27.8333 25.0877 22.0877 30.8333 15 30.8333C7.91234 30.8333 2.16666 25.0877 2.16666 18C2.16666 10.9123 7.91234 5.16666 15 5.16666C22.0877 5.16666 27.8333 10.9123 27.8333 18ZM30 18C30 26.2843 23.2843 33 15 33C6.71573 33 0 26.2843 0 18C0 9.71573 6.71573 3 15 3C23.2843 3 30 9.71573 30 18ZM23.2759 11.2759C23.2759 12.1329 22.5812 12.8276 21.7242 12.8276C20.8672 12.8276 20.1725 12.1329 20.1725 11.2759C20.1725 10.4189 20.8672 9.72418 21.7242 9.72418C22.5812 9.72418 23.2759 10.4189 23.2759 11.2759ZM10.4879 19.209C11.1556 21.7009 13.717 23.1797 16.2089 22.512C18.7008 21.8443 20.1796 19.2829 19.5119 16.791C18.8442 14.2991 16.2828 12.8203 13.7909 13.488C11.299 14.1557 9.82015 16.7171 10.4879 19.209ZM8.39503 19.7698C9.37244 23.4175 13.1219 25.5823 16.7696 24.6049C20.4174 23.6274 22.5821 19.878 21.6047 16.2302C20.6273 12.5825 16.8779 10.4177 13.2301 11.3952C9.58236 12.3726 7.41762 16.122 8.39503 19.7698Z" fill="url(#paint0_linear_19_4094)"/>
<path d="M39.8661 28V8.20757H43.5984V28H39.8661ZM46.5863 28V13.9757H50.0924V15.8135H50.6013C50.8275 15.3234 51.2516 14.8616 51.8737 14.428C52.4957 13.9757 53.4382 13.7495 54.7012 13.7495C55.7945 13.7495 56.7464 14.0039 57.557 14.5129C58.3863 15.003 59.0272 15.691 59.4796 16.5769C59.932 17.444 60.1582 18.4619 60.1582 19.6306V28H56.5956V19.9134C56.5956 18.8578 56.3317 18.0661 55.8039 17.5383C55.295 17.0105 54.5598 16.7466 53.5985 16.7466C52.5052 16.7466 51.6569 17.1142 51.0537 17.8493C50.4505 18.5656 50.1489 19.5741 50.1489 20.8747V28H46.5863ZM68.986 28.3958C67.1575 28.3958 65.659 28 64.4903 27.2083C63.3216 26.4166 62.6147 25.2856 62.3696 23.8153L65.6495 22.9671C65.7815 23.6268 65.9983 24.1452 66.2999 24.5222C66.6203 24.8992 67.0067 25.1725 67.4591 25.3422C67.9304 25.493 68.4393 25.5684 68.986 25.5684C69.8154 25.5684 70.428 25.427 70.8238 25.1442C71.2197 24.8426 71.4176 24.4751 71.4176 24.0415C71.4176 23.608 71.2291 23.2781 70.8521 23.0519C70.4751 22.8068 69.8719 22.6089 69.0425 22.4581L68.2508 22.3167C67.2706 22.1282 66.3753 21.8738 65.5647 21.5533C64.7542 21.214 64.1038 20.7522 63.6137 20.1679C63.1236 19.5835 62.8786 18.8295 62.8786 17.9059C62.8786 16.511 63.3875 15.4459 64.4054 14.7108C65.4233 13.9568 66.7617 13.5798 68.4205 13.5798C69.985 13.5798 71.2857 13.9285 72.3224 14.626C73.3592 15.3234 74.0378 16.2376 74.3582 17.3686L71.05 18.3865C70.8992 17.6702 70.5882 17.1613 70.117 16.8597C69.6646 16.5581 69.0991 16.4073 68.4205 16.4073C67.7419 16.4073 67.2235 16.5298 66.8654 16.7749C66.5072 17.0011 66.3281 17.3215 66.3281 17.7362C66.3281 18.1886 66.5166 18.5279 66.8936 18.7541C67.2706 18.9615 67.7796 19.1217 68.4205 19.2348L69.2122 19.3762C70.2678 19.5647 71.2197 19.8191 72.0679 20.1396C72.935 20.4412 73.6136 20.8842 74.1037 21.4685C74.6127 22.034 74.8672 22.8068 74.8672 23.787C74.8672 25.2573 74.3299 26.3978 73.2555 27.2083C72.1999 28 70.7767 28.3958 68.986 28.3958ZM81.3847 28.3958C80.3857 28.3958 79.4903 28.2262 78.6986 27.8869C77.9069 27.5288 77.2755 27.0198 76.8042 26.3601C76.3518 25.6815 76.1256 24.8615 76.1256 23.9001C76.1256 22.9388 76.3518 22.1377 76.8042 21.4968C77.2755 20.837 77.9163 20.3469 78.7269 20.0265C79.5563 19.6872 80.4988 19.5175 81.5544 19.5175H85.3998V18.7258C85.3998 18.0661 85.1924 17.5289 84.7777 17.1142C84.363 16.6806 83.7033 16.4638 82.7985 16.4638C81.9125 16.4638 81.2528 16.6712 80.8192 17.0859C80.3857 17.4817 80.1029 18.0001 79.971 18.641L76.6911 17.5383C76.9173 16.822 77.2755 16.1717 77.7655 15.5873C78.2745 14.9841 78.9437 14.5034 79.7731 14.1453C80.6213 13.7683 81.6486 13.5798 82.855 13.5798C84.7023 13.5798 86.1632 14.0416 87.2376 14.9653C88.3121 15.8889 88.8493 17.2273 88.8493 18.9803V24.2112C88.8493 24.7767 89.1132 25.0594 89.641 25.0594H90.772V28H88.3969C87.6995 28 87.1245 27.8304 86.6721 27.4911C86.2197 27.1518 85.9935 26.6994 85.9935 26.1339V26.1056H85.4563C85.3809 26.3318 85.2113 26.6334 84.9474 27.0104C84.6835 27.3685 84.2688 27.689 83.7033 27.9717C83.1378 28.2545 82.3649 28.3958 81.3847 28.3958ZM82.0068 25.5118C83.0058 25.5118 83.8164 25.2385 84.4384 24.6918C85.0793 24.1263 85.3998 23.3818 85.3998 22.4581V22.1754H81.8089C81.1491 22.1754 80.6307 22.3167 80.2537 22.5995C79.8767 22.8822 79.6882 23.2781 79.6882 23.787C79.6882 24.296 79.8862 24.7107 80.282 25.0311C80.6779 25.3516 81.2528 25.5118 82.0068 25.5118ZM91.5739 21.0444V20.592C91.5739 19.1217 91.866 17.8682 92.4504 16.8314C93.0347 15.7758 93.8076 14.9747 94.7689 14.428C95.7491 13.8626 96.8141 13.5798 97.964 13.5798C99.2458 13.5798 100.217 13.806 100.876 14.2584C101.536 14.7108 102.017 15.182 102.318 15.6721H102.827V13.9757H106.333V30.4882C106.333 31.4495 106.051 32.213 105.485 32.7785C104.92 33.3628 104.166 33.655 103.223 33.655H93.8359V30.5447H101.979C102.507 30.5447 102.771 30.262 102.771 29.6965V26.049H102.262C102.073 26.3506 101.809 26.6617 101.47 26.9821C101.131 27.2837 100.678 27.5382 100.113 27.7455C99.5474 27.9529 98.8311 28.0565 97.964 28.0565C96.8141 28.0565 95.7491 27.7832 94.7689 27.2366C93.8076 26.6711 93.0347 25.87 92.4504 24.8332C91.866 23.7776 91.5739 22.5147 91.5739 21.0444ZM98.9819 24.9463C100.075 24.9463 100.989 24.5976 101.725 23.9001C102.46 23.2027 102.827 22.2225 102.827 20.9596V20.6768C102.827 19.395 102.46 18.4148 101.725 17.7362C101.008 17.0388 100.094 16.69 98.9819 16.69C97.8886 16.69 96.9744 17.0388 96.2392 17.7362C95.5041 18.4148 95.1365 19.395 95.1365 20.6768V20.9596C95.1365 22.2225 95.5041 23.2027 96.2392 23.9001C96.9744 24.5976 97.8886 24.9463 98.9819 24.9463ZM109.435 28V13.9757H112.941V15.559H113.45C113.657 14.9935 113.997 14.5788 114.468 14.3149C114.958 14.0511 115.524 13.9191 116.164 13.9191H117.861V17.0859H116.108C115.203 17.0859 114.458 17.3309 113.874 17.821C113.29 18.2923 112.998 19.0274 112.998 20.0265V28H109.435ZM123.82 28.3958C122.821 28.3958 121.926 28.2262 121.134 27.8869C120.342 27.5288 119.711 27.0198 119.24 26.3601C118.787 25.6815 118.561 24.8615 118.561 23.9001C118.561 22.9388 118.787 22.1377 119.24 21.4968C119.711 20.837 120.352 20.3469 121.162 20.0265C121.992 19.6872 122.934 19.5175 123.99 19.5175H127.835V18.7258C127.835 18.0661 127.628 17.5289 127.213 17.1142C126.799 16.6806 126.139 16.4638 125.234 16.4638C124.348 16.4638 123.688 16.6712 123.255 17.0859C122.821 17.4817 122.538 18.0001 122.407 18.641L119.127 17.5383C119.353 16.822 119.711 16.1717 120.201 15.5873C120.71 14.9841 121.379 14.5034 122.209 14.1453C123.057 13.7683 124.084 13.5798 125.291 13.5798C127.138 13.5798 128.599 14.0416 129.673 14.9653C130.748 15.8889 131.285 17.2273 131.285 18.9803V24.2112C131.285 24.7767 131.549 25.0594 132.077 25.0594H133.208V28H130.832C130.135 28 129.56 27.8304 129.108 27.4911C128.655 27.1518 128.429 26.6994 128.429 26.1339V26.1056H127.892C127.816 26.3318 127.647 26.6334 127.383 27.0104C127.119 27.3685 126.704 27.689 126.139 27.9717C125.573 28.2545 124.8 28.3958 123.82 28.3958ZM124.442 25.5118C125.441 25.5118 126.252 25.2385 126.874 24.6918C127.515 24.1263 127.835 23.3818 127.835 22.4581V22.1754H124.244C123.585 22.1754 123.066 22.3167 122.689 22.5995C122.312 22.8822 122.124 23.2781 122.124 23.787C122.124 24.296 122.322 24.7107 122.718 25.0311C123.113 25.3516 123.688 25.5118 124.442 25.5118ZM134.964 28V13.9757H138.47V15.5025H138.979C139.224 15.0312 139.629 14.626 140.195 14.2867C140.76 13.9285 141.505 13.7495 142.429 13.7495C143.428 13.7495 144.229 13.9474 144.832 14.3432C145.435 14.7202 145.897 15.2197 146.218 15.8418H146.726C147.047 15.2386 147.499 14.7391 148.084 14.3432C148.668 13.9474 149.497 13.7495 150.572 13.7495C151.439 13.7495 152.221 13.938 152.919 14.3149C153.635 14.6731 154.2 15.2292 154.615 15.9832C155.049 16.7183 155.265 17.6514 155.265 18.7824V28H151.703V19.0369C151.703 18.264 151.505 17.6891 151.109 17.3121C150.713 16.9162 150.157 16.7183 149.441 16.7183C148.63 16.7183 147.999 16.9822 147.546 17.51C147.113 18.019 146.896 18.7541 146.896 19.7155V28H143.333V19.0369C143.333 18.264 143.136 17.6891 142.74 17.3121C142.344 16.9162 141.788 16.7183 141.071 16.7183C140.261 16.7183 139.629 16.9822 139.177 17.51C138.744 18.019 138.527 18.7541 138.527 19.7155V28H134.964Z" fill="white"/>
<defs>
<linearGradient id="paint0_linear_19_4094" x1="15" y1="3" x2="15" y2="33" gradientUnits="userSpaceOnUse">
<stop stop-color="#877EFF"/>
<stop offset="0.461458" stop-color="#685DFF"/>
<stop offset="1" stop-color="#3121FF"/>
</linearGradient>
</defs>
</svg>
